<?xml version="1.0" encoding="UTF-8"?><svg id="Capa_2" xmlns="http://www.w3.org/2000/svg" viewBox="0 0 475.36 635.94"><defs><style>.cls-1{fill:#fff;}</style></defs><g id="Capa_1-2"><path class="cls-1" d="M162.17,71.56c-2.05-7.34-4.24-14.97-11.03-19.28-4.15-2.64-8.92-3.8-13.51-5.42,5.13-1.84,10.78-3.15,15.19-6.54,5.45-4.2,7.62-11.81,9.35-18.16.54.05.53.53.68.9,1.73,4.41,2.17,8.32,4.92,12.6,4.49,7,11.9,8.65,19.28,11.21-6.84,2.4-14.27,4.15-18.72,10.36-3.12,4.35-3.65,8.76-5.47,13.45-.14.36-.14.84-.68.89Z"/><rect class="cls-1" x="32.57" y="267.97" width="32.47" height="32.47"/><polygon class="cls-1" points="32.57 332.88 32.57 365.35 49.51 365.35 57.29 332.88 32.57 332.88"/><rect class="cls-1" y="300.26" width="32.47" height="32.47"/><rect class="cls-1" x="312.31" y=".09" width="32.47" height="32.47"/><rect class="cls-1" x="279.82" y="32.7" width="32.47" height="32.47"/><path class="cls-1" d="M418.22,231.79h-33.88l-17.65-84.71h-36l-18.35-81.88h-124.94l-18.35,81.88h-36l-17.65,84.71h-33.88l-24.22,101.09h7.75v32.47h-15.53l-4.7,19.62h410.12l-36.71-153.18ZM97.66,332.95h-32.47v-32.47h32.47v32.47ZM130.16,300.44h-32.47v-32.47h32.47v32.47ZM312.29,65.21v32.47h-32.47v-32.47M220.04,100.85h59.65v28.24h-59.65v-28.24ZM194.81,174.15h110.12v28.24h-110.12v-28.24ZM172.22,247.44h155.29v28.24h-155.29v-28.24ZM353.99,348.97h-208.24v-28.24h208.24v28.24Z"/><rect class="cls-1" x="247.35" width="32.47" height="32.47"/><path class="cls-1" d="M464.74,589.82h2.87v13.75h6.71v2.41h-9.58v-16.17Z"/><path class="cls-1" d="M7.87,597.96c0-5.29,3.31-8.43,7.41-8.43,2.03,0,3.64.97,4.66,2.05l-1.53,1.85c-.83-.83-1.8-1.4-3.07-1.4-2.63,0-4.52,2.23-4.52,5.85s1.74,5.92,4.45,5.92c1.43,0,2.54-.66,3.45-1.66l1.53,1.8c-1.31,1.52-3,2.35-5.09,2.35-4.06,0-7.29-2.98-7.29-8.33Z"/><path class="cls-1" d="M25.2,589.82h9.73v2.41h-6.86v4.14h5.81v2.41h-5.81v4.79h7.11v2.41h-9.98v-16.17Z"/><path class="cls-1" d="M40.75,589.82h2.95l5.02,9.09,1.67,3.45h.1c-.14-1.67-.37-3.72-.37-5.52v-7.02h2.73v16.17h-2.95l-5.02-9.1-1.67-3.44h-.1c.14,1.71.37,3.66.37,5.46v7.08h-2.73v-16.17Z"/><path class="cls-1" d="M62.47,592.23h-4.67v-2.41h12.2v2.41h-4.67v13.75h-2.87v-13.75Z"/><path class="cls-1" d="M74.95,589.82h5.45c3.36,0,5.95,1.19,5.95,4.79s-2.59,5.05-5.95,5.05h-2.58v6.32h-2.87v-16.17ZM80.1,597.38c2.21,0,3.42-.92,3.42-2.76s-1.21-2.5-3.42-2.5h-2.28v5.26h2.28ZM79.86,598.9l2.08-1.71,5.05,8.79h-3.22l-3.9-7.09Z"/><path class="cls-1" d="M90.98,597.84c0-5.23,2.92-8.31,7.13-8.31s7.13,3.1,7.13,8.31-2.92,8.45-7.13,8.45-7.13-3.21-7.13-8.45ZM102.29,597.84c0-3.63-1.64-5.82-4.18-5.82s-4.18,2.2-4.18,5.82,1.64,5.95,4.18,5.95,4.18-2.32,4.18-5.95Z"/><path class="cls-1" d="M117.92,589.82h4.31c4.95,0,7.88,2.67,7.88,8.02s-2.93,8.15-7.73,8.15h-4.46v-16.17ZM122.05,603.66c3.25,0,5.12-1.85,5.12-5.82s-1.87-5.7-5.12-5.7h-1.25v11.52h1.25Z"/><path class="cls-1" d="M135.62,589.82h9.73v2.41h-6.86v4.14h5.81v2.41h-5.81v4.79h7.11v2.41h-9.98v-16.17Z"/><path class="cls-1" d="M158.35,589.82h2.87v16.17h-2.87v-16.17Z"/><path class="cls-1" d="M167.57,589.82h2.95l5.02,9.09,1.67,3.45h.1c-.14-1.67-.37-3.72-.37-5.52v-7.02h2.73v16.17h-2.95l-5.02-9.1-1.67-3.44h-.1c.14,1.71.37,3.66.37,5.46v7.08h-2.73v-16.17Z"/><path class="cls-1" d="M189.3,592.23h-4.67v-2.41h12.2v2.41h-4.67v13.75h-2.87v-13.75Z"/><path class="cls-1" d="M201.77,589.82h9.73v2.41h-6.86v4.14h5.81v2.41h-5.81v4.79h7.11v2.41h-9.98v-16.17Z"/><path class="cls-1" d="M217.32,589.82h2.87v13.75h6.71v2.41h-9.58v-16.17Z"/><path class="cls-1" d="M231.97,589.82h2.87v16.17h-2.87v-16.17Z"/><path class="cls-1" d="M240.34,597.96c0-5.29,3.35-8.43,7.65-8.43,2.29,0,3.87,1.01,4.88,2.05l-1.53,1.85c-.81-.79-1.76-1.4-3.26-1.4-2.87,0-4.8,2.23-4.8,5.85s1.71,5.92,4.95,5.92c.9,0,1.79-.26,2.3-.71v-3.49h-3.04v-2.35h5.62v7.13c-1.08,1.09-2.95,1.92-5.16,1.92-4.36,0-7.61-2.98-7.61-8.33Z"/><path class="cls-1" d="M258.96,589.82h9.73v2.41h-6.86v4.14h5.81v2.41h-5.81v4.79h7.11v2.41h-9.98v-16.17Z"/><path class="cls-1" d="M274.5,589.82h2.95l5.02,9.09,1.67,3.45h.1c-.14-1.67-.37-3.72-.37-5.52v-7.02h2.73v16.17h-2.95l-5.02-9.1-1.67-3.44h-.1c.14,1.71.37,3.66.37,5.46v7.08h-2.73v-16.17Z"/><path class="cls-1" d="M292.11,597.96c0-5.29,3.31-8.43,7.41-8.43,2.03,0,3.64.97,4.66,2.05l-1.53,1.85c-.83-.83-1.8-1.4-3.07-1.4-2.63,0-4.52,2.23-4.52,5.85s1.74,5.92,4.45,5.92c1.43,0,2.54-.66,3.45-1.66l1.53,1.8c-1.31,1.52-3,2.35-5.09,2.35-4.06,0-7.29-2.98-7.29-8.33Z"/><path class="cls-1" d="M309.45,589.82h2.87v16.17h-2.87v-16.17Z"/><path class="cls-1" d="M321.83,589.82h3.36l5.27,16.17h-3.04l-2.46-8.6c-.51-1.71-.99-3.55-1.46-5.33h-.1c-.45,1.79-.92,3.62-1.43,5.33l-2.48,8.6h-2.93l5.27-16.17ZM319.67,599.36h7.61v2.25h-7.61v-2.25Z"/><path class="cls-1" d="M344.91,589.82h3.36l5.27,16.17h-3.04l-2.46-8.6c-.51-1.71-.99-3.55-1.46-5.33h-.1c-.45,1.79-.92,3.62-1.43,5.33l-2.48,8.6h-2.93l5.27-16.17ZM342.75,599.36h7.61v2.25h-7.61v-2.25Z"/><path class="cls-1" d="M357.63,589.82h5.45c3.36,0,5.95,1.19,5.95,4.79s-2.59,5.05-5.95,5.05h-2.58v6.32h-2.87v-16.17ZM362.79,597.38c2.21,0,3.42-.92,3.42-2.76s-1.21-2.5-3.42-2.5h-2.28v5.26h2.28ZM362.54,598.9l2.08-1.71,5.05,8.79h-3.22l-3.9-7.09Z"/><path class="cls-1" d="M377.38,592.23h-4.67v-2.41h12.2v2.41h-4.67v13.75h-2.87v-13.75Z"/><path class="cls-1" d="M389.86,589.82h2.87v16.17h-2.87v-16.17Z"/><path class="cls-1" d="M399.08,589.82h9.77v2.41h-6.9v4.59h5.87v2.41h-5.87v6.75h-2.87v-16.17Z"/><path class="cls-1" d="M413.93,589.82h2.87v16.17h-2.87v-16.17Z"/><path class="cls-1" d="M422.3,597.96c0-5.29,3.31-8.43,7.41-8.43,2.03,0,3.64.97,4.66,2.05l-1.53,1.85c-.83-.83-1.8-1.4-3.07-1.4-2.63,0-4.52,2.23-4.52,5.85s1.74,5.92,4.45,5.92c1.43,0,2.54-.66,3.45-1.66l1.53,1.8c-1.31,1.52-3,2.35-5.09,2.35-4.06,0-7.29-2.98-7.29-8.33Z"/><path class="cls-1" d="M439.63,589.82h2.87v16.17h-2.87v-16.17Z"/><path class="cls-1" d="M452.01,589.82h3.36l5.27,16.17h-3.04l-2.46-8.6c-.51-1.71-.99-3.55-1.46-5.33h-.1c-.44,1.79-.92,3.62-1.43,5.33l-2.48,8.6h-2.93l5.27-16.17ZM449.86,599.36h7.61v2.25h-7.61v-2.25Z"/><path class="cls-1" d="M167.41,619.48h4.31c4.95,0,7.88,2.67,7.88,8.02s-2.93,8.15-7.73,8.15h-4.46v-16.17ZM171.53,633.32c3.25,0,5.12-1.85,5.12-5.82s-1.87-5.7-5.12-5.7h-1.25v11.52h1.25Z"/><path class="cls-1" d="M185.11,619.48h9.73v2.41h-6.86v4.14h5.81v2.41h-5.81v4.79h7.11v2.41h-9.98v-16.17Z"/><path class="cls-1" d="M210.54,629.63l-4.87-10.15h3.07l1.76,4.13c.47,1.2.93,2.32,1.44,3.55h.1c.51-1.23,1.02-2.35,1.49-3.55l1.76-4.13h2.99l-4.87,10.15v6.01h-2.87v-6.01Z"/><path class="cls-1" d="M222.14,628.55v-9.08h2.87v9.29c0,3.52,1.31,4.68,3.27,4.68s3.34-1.16,3.34-4.68v-9.29h2.76v9.08c0,5.31-2.35,7.39-6.1,7.39s-6.14-2.08-6.14-7.39Z"/><path class="cls-1" d="M239.81,627.62c0-5.29,3.31-8.44,7.41-8.44,2.03,0,3.64.97,4.66,2.05l-1.53,1.85c-.83-.83-1.8-1.4-3.06-1.4-2.63,0-4.52,2.22-4.52,5.85s1.74,5.92,4.45,5.92c1.43,0,2.54-.66,3.45-1.66l1.53,1.8c-1.31,1.52-3,2.35-5.09,2.35-4.06,0-7.29-2.98-7.29-8.32Z"/><path class="cls-1" d="M260.31,619.48h3.36l5.27,16.17h-3.04l-2.46-8.6c-.51-1.71-.99-3.55-1.46-5.33h-.1c-.45,1.79-.92,3.62-1.43,5.33l-2.48,8.6h-2.93l5.27-16.17ZM258.15,629.01h7.61v2.25h-7.61v-2.25Z"/><path class="cls-1" d="M274.86,621.89h-4.67v-2.41h12.2v2.41h-4.67v13.75h-2.87v-13.75Z"/><path class="cls-1" d="M289.52,619.48h3.36l5.27,16.17h-3.04l-2.46-8.6c-.51-1.71-.99-3.55-1.46-5.33h-.1c-.45,1.79-.92,3.62-1.43,5.33l-2.48,8.6h-2.93l5.27-16.17ZM287.36,629.01h7.61v2.25h-7.61v-2.25ZM289.54,617.19l3.87-3.32,1.55,1.87-4.15,2.89-1.27-1.43Z"/><path class="cls-1" d="M302.24,619.48h2.95l5.02,9.09,1.67,3.45h.1c-.14-1.67-.37-3.72-.37-5.52v-7.02h2.73v16.17h-2.95l-5.02-9.1-1.67-3.44h-.1c.14,1.71.37,3.66.37,5.46v7.08h-2.73v-16.17Z"/><path class="cls-1" d="M144.33,447.05c0-5.39,0-11.18.19-16.38h57.61c0,5.01-.19,11.18-.19,16.38l-12.14.58c-.39,0-.39.19-.39.96l-.58,90.18,12.91.77c0,5.2,0,10.98-.19,16.57-7.9,0-19.27-.19-28.9-.19-8.86,0-19.65.19-28.52.19,0-5.39.19-11.37.19-16.76l11.18-.38c.38,0,.77-.39.77-.77v-90.56l-11.95-.58Z"/><path class="cls-1" d="M232.77,539.15c.39,0,.96-.38,1.16-.96,11.75-31.21,28.71-76.88,40.27-108.29,3.47-.38,12.33-.38,26.4-.38,11.18,32.37,26.4,78.42,37,109.45l9.83.77c0,5.2,0,10.79-.19,16.19h-54.15c0-5.39,0-10.98.19-16.38l9.44-.58c.39,0,.77-.39.58-.96-.96-2.89-2.7-9.06-3.85-11.95-.19-.77-.58-.96-1.35-.96l-35.65.39c-.96,4.24-2.5,9.63-3.28,13.68l10.6.58c0,5.2,0,10.79-.19,16.19h-46.05c0-5.39.19-10.98.38-16.19l8.86-.58ZM280.55,465.36c-4.43,14.26-9.06,29.48-13.1,42.58-.19.77-.19,1.16.39,1.16h26.98c-4.05-12.72-8.67-28.52-13.3-43.74h-.96Z"/><path class="cls-1" d="M396.16,538.96c.58,0,.77-.39.77-.96v-28.71c-8.29-14.45-23.89-44.51-32.37-60.7,0-.39-.58-1.16-.96-1.16l-7.71-.39c0-5.39,0-11.37.19-16.38h58.38c0,5.01-.19,10.98-.39,16.38l-11.56.58c5.78,14.26,12.72,30.06,18.5,42.58h.96c6.94-13.1,13.68-26.78,19.46-41.62.19-.39-.19-.77-.58-.96l-10.41-.38c0-5.39.19-11.18.39-16.57h44.51c0,5.2,0,11.18-.38,16.57l-8.48.38c-8.86,15.42-25.63,44.13-36.61,61.28l-.38,29.87,14.26.77c0,5.2,0,10.98-.19,16.57-8.29,0-20.04-.19-30.06-.19-9.25,0-20.42.19-29.67.19,0-5.39,0-11.18.19-16.57l12.14-.58Z"/><path class="cls-1" d="M95.77,532.88c-1.03,2.63-3.26,4.61-6,5.31-5.59,1.43-11.11,2.43-15.06,2.05-8.22-.78-17.63-4.37-23.25-10.71-7.52-8.18-12.45-22.16-10.77-39.84,1.64-17.27,3.88-28.19,13.82-36.78,6.32-5.42,19.88-5.15,26.46-4.53,4.32.41,7.28,1.94,9.41,3.59.78.49.87,1.74,1,2.58l2.72,17.43c.21,1.32,1.36,2.29,2.69,2.26,5.65-.12,11.27-.35,16.59-.63,1.66-.09,2.98-1.44,3.04-3.11.39-11.87.48-21.81.54-33.39.01-1.93-1.22-3.65-3.04-4.28-5.29-1.84-13.32-3.44-23.78-4.43-18.3-1.74-36.86-.96-51.88,8.61-16.34,10.48-28.12,27.93-30.89,57.12-2.05,21.58,7.45,38.19,19.5,48.88,11.1,9.76,25.89,14.3,41.72,15.8,9.92.94,26.64-2.6,39.96-6.28,1.37-.38,2.39-1.52,2.61-2.92l5.5-35.45c.12-.8-.49-1.53-1.3-1.54l-10.7-.13c-.56,0-1.06.33-1.26.85l-7.61,19.53Z"/></g></svg>